<?xml version="1.0" encoding="UTF-8"?>
<svg id="Layer_2" data-name="Layer 2" xmlns="http://www.w3.org/2000/svg" xmlns:xlink="http://www.w3.org/1999/xlink" viewBox="0 0 614.72 134.03">
  <defs>
    <style>
      .cls-1 {
        clip-path: url(#clippath);
      }

      .cls-2 {
        fill: none;
      }

      .cls-3 {
        fill: url(#linear-gradient);
      }

      .cls-4 {
        fill: #0159f2;
      }
    </style>
    <clipPath id="clippath">
      <path class="cls-2" d="M362.17,89.55c-1.77-5.15-1.37-10.39,.93-15.91,2.43-5.83,5.83-8.64,10.95-11.23,5.13-2.59,9.05-1.93,11.45-1.87l-16.27,39.01c-3.21-2.76-5.29-4.85-7.06-10.01m99.43,16.55c-4.54-4.81-6.81-11.68-6.81-20.63s2.33-15.82,6.98-20.63c4.65-4.81,10.42-7.21,17.32-7.21s12.72,2.41,17.49,7.21c4.77,4.81,7.15,11.69,7.15,20.63,0,6-1.15,11.09-3.45,15.28-2.3,4.19-5.37,7.33-9.22,9.42-3.85,2.1-7.96,3.14-12.32,3.14-6.89,0-12.61-2.4-17.15-7.22m98.58-66.94c-5,2.36-9.11,5.6-12.32,9.74v-11.97h-24.13v29.31c-.27-.52-6.11-15.13-20.08-22.75-7.47-4.07-14.38-6.56-23.57-6.56-10.46,0-16.72,2.64-24.47,6.14-13.36,6.03-20.29,21.65-21.03,23.38-2.72-5.36-5.32-11.13-12.87-17.65l-9.88,23.6s10.91,9.5,5.29,23.69c-2.29,5.77-6.21,10.08-11.45,12.5-5.24,2.42-11.15,2.29-17.73,.16l27.05-64.86c-8.25-4.73-16.88-7.16-25.08-6.98-28.77,.65-40.68,20.99-44.09,28.32-.69-8.3-4.65-14.38-9.01-18.84-7.01-7.18-16.2-10.77-27.57-10.77-5.98,0-11.46,1.18-16.46,3.53-5,2.36-9.11,5.6-12.32,9.74v-11.97h-24.13l-40.13,97.1h64.26v-54.28c0-7.58,1.92-13.41,5.77-17.49,3.85-4.08,9.1-6.12,15.77-6.12s11.72,2.04,15.51,6.12c3.79,4.08,5.69,9.91,5.69,17.49v54.28h24.13v-24.98c12.56,21.18,31.71,24.8,42.01,24.98,27.11,.47,42.23-21.02,45.32-29.65,.74,1.83,1.91,4.3,2.93,5.98,4.12,6.85,10.2,13.18,17.56,17.25,7.35,4.08,15.25,6.42,24.45,6.42s17-2.67,24.49-6.8c13.36-7.36,19.34-21.61,19.67-22.22v29.02h24.13v-54.28c0-7.58,1.92-13.41,5.77-17.49,3.85-4.08,9.1-6.12,15.77-6.12s11.72,2.04,15.51,6.12c3.79,4.08,5.69,9.91,5.69,17.49v54.28h24.13v-57.56c0-12.87-3.51-22.89-10.51-30.07-7.01-7.18-16.2-10.77-27.57-10.77-5.98,0-11.46,1.18-16.46,3.53"/>
    </clipPath>
    <linearGradient id="linear-gradient" x1="-176.62" y1="1107.65" x2="-175.62" y2="1107.65" gradientTransform="translate(70604.66 -441352.63) scale(398.54)" gradientUnits="userSpaceOnUse">
      <stop offset="0" stop-color="#f1948d"/>
      <stop offset="1" stop-color="#8e31bb"/>
    </linearGradient>
  </defs>
  <g id="Layer_1-2" data-name="Layer 1">
    <rect class="cls-4" x="99.02" y="36.93" width="24.12" height="97.1"/>
    <path class="cls-4" d="M111.08,0c-3.46,0-6.34,1.1-8.62,3.3-2.29,2.2-3.44,4.93-3.44,8.21s1.14,6.01,3.44,8.2c2.29,2.2,5.16,3.3,8.62,3.3s6.33-1.1,8.63-3.3c2.29-2.2,3.44-4.93,3.44-8.2s-1.14-6.01-3.44-8.21c-2.29-2.2-5.17-3.3-8.63-3.3"/>
    <path class="cls-4" d="M65.17,100.76s-.09,.31-.26,.77c-3.05,8.09-9.24,12.13-18.57,12.13-6.79,0-12.17-2.46-16.13-7.38-3.96-4.92-5.94-11.85-5.94-20.8s1.98-16.04,5.94-20.96c3.96-4.92,9.34-7.38,16.13-7.38,4.75,0,8.74,1.16,11.96,3.48,3.23,2.32,5.52,5.52,6.88,9.59h25.63c-2.61-10.52-7.72-18.7-15.36-24.53-7.64-5.83-17.29-8.74-28.94-8.74-9.06,0-17.09,2.01-24.11,6.03-7.02,4.02-12.51,9.68-16.47,16.98-3.96,7.3-5.94,15.82-5.94,25.55s1.98,18.25,5.94,25.55c3.96,7.3,9.45,12.96,16.47,16.97,7.01,4.02,15.05,6.03,24.11,6.03,11.54,0,21.16-3,28.86-9,7.69-6,12.84-14.09,15.45-24.27h-25.65Z"/>
    <path class="cls-4" d="M167.67,36.93V13.4h-23.81v23.53h-12.52v20.71h12.52v30.02c0,25.61,20.64,46.37,46.25,46.37h.12l4.48-11.14-26.94-65.18h26.94l13.47,32.59,22.06-53.37h-62.57Z"/>
    <g class="cls-1">
      <rect class="cls-3" x="216.19" y="35.63" width="398.54" height="98.87"/>
    </g>
    <path class="cls-4" d="M603.02,5.47c-6.46,0-11.71,5.25-11.71,11.71s5.25,11.71,11.71,11.71,11.71-5.25,11.71-11.71-5.25-11.71-11.71-11.71m0,21.12c-5.19,0-9.41-4.22-9.41-9.41s4.22-9.41,9.41-9.41,9.41,4.22,9.41,9.41-4.22,9.41-9.41,9.41"/>
    <path class="cls-4" d="M607.6,16.76c.45-.63,.68-1.34,.68-2.14,0-.71-.17-1.35-.5-1.93-.33-.58-.83-1.03-1.5-1.36-.67-.33-1.48-.5-2.43-.5h-4.92v12.04h2.93v-4.54h.7l2.5,4.54h3.31l-2.78-4.77c.88-.26,1.55-.71,2-1.34m-2.71-.91c-.27,.26-.67,.4-1.21,.4h-1.82v-2.99h1.82c.54,0,.94,.13,1.21,.4,.27,.26,.4,.62,.4,1.08,0,.48-.14,.85-.4,1.11"/>
  </g>
</svg>